<?xml version="1.0" encoding="utf-8"?>
<!-- Generator: Adobe Illustrator 16.0.0, SVG Export Plug-In . SVG Version: 6.00 Build 0)  -->
<!DOCTYPE svg PUBLIC "-//W3C//DTD SVG 1.1//EN" "http://www.w3.org/Graphics/SVG/1.1/DTD/svg11.dtd">
<svg version="1.1" id="Layer_1" xmlns="http://www.w3.org/2000/svg" xmlns:xlink="http://www.w3.org/1999/xlink" x="0px" y="0px"
	 width="1000px" height="1000px" viewBox="0 0 1000 1000" enable-background="new 0 0 1000 1000" xml:space="preserve">
<path fill="none" stroke="black" d="M500,683c0,0,44.771-29.191,96.421-75.751c27.917-25.166,57.843-55.405,83.795-88.852
	c18.467-23.8,34.921-49.223,47.207-75.597C741.414,412.769,750,381.505,750,350c0-27.507-3.142-50.563-8.409-69.889
	c-5.257-19.29-12.631-34.863-21.111-47.435c-10.801-16.013-23.397-27.159-35.698-34.916C656.618,180,630,180,630,180
	c-19.575,0-36.202,2.121-50.326,5.724c-20.778,5.301-36.138,13.809-47.492,23.491c-7.329,6.25-12.988,12.989-17.359,19.67
	C500,251.543,500,273.538,500,273.538s0-20.792-13.625-42.771c-4.675-7.542-10.954-15.223-19.388-22.252
	c-11.313-9.429-26.505-17.684-46.902-22.853C406.014,182.097,389.464,180,370,180c0,0-23.399,1.283-49.533,16.788
	c-13.159,7.807-27.011,19.22-38.918,35.89c-9.337,13.072-17.478,29.377-23.15,49.712C253.138,301.25,250,323.574,250,350
	c0,26.69,6.668,53.545,17.828,79.798c12.583,29.604,30.875,58.442,51.754,85.418c25.715,33.226,55.354,63.626,83.081,89.151
	C454.697,652.27,500,683,500,683z"/>
</svg>
