<?xml version="1.0" encoding="utf-8"?>
<!-- Generator: Adobe Illustrator 16.0.0, SVG Export Plug-In . SVG Version: 6.00 Build 0)  -->
<!DOCTYPE svg PUBLIC "-//W3C//DTD SVG 1.1//EN" "http://www.w3.org/Graphics/SVG/1.1/DTD/svg11.dtd">
<svg version="1.1" id="Layer_1" xmlns="http://www.w3.org/2000/svg" xmlns:xlink="http://www.w3.org/1999/xlink" x="0px" y="0px"
	 width="1000px" height="1000px" viewBox="0 0 1000 1000" enable-background="new 0 0 1000 1000" xml:space="preserve">
<path fill="none" d="M492,318c19.014-0.207,36.348,3.476,51.863,10.312c17.135,7.549,32.053,18.942,44.569,33.188
	c12.051,13.717,21.875,30.079,29.306,48.198c7.724,18.833,12.862,39.563,15.23,61.197c1.894,17.302,2.016,35.182,0.271,53.129
	C631.676,540.083,628.62,556.197,624,572c-5.001,17.108-11.675,32.867-20.265,46.837c-8.343,13.568-18.494,25.449-30.675,35.237
	C555.709,668.017,534.238,677.714,508,682c-14.34,2.342-28.453,0.545-41.481-4.375c-12.396-4.68-23.809-12.187-33.501-21.644
	c-11.18-10.907-20.071-24.409-25.541-39.159C400.723,598.61,399.186,578.491,405,559c5.199-17.432,33-33,33-59s-23.406-33.126-30-50
	c-10.423-26.671-7.408-52.15,2.344-73.302C419.877,356.021,435.849,339.479,452,330C472.181,320,480.101,319.78,492,318z"/>
</svg>
