<?xml version="1.0" encoding="UTF-8"?>
<!DOCTYPE svg PUBLIC "-//W3C//DTD SVG 1.1//EN" "http://www.w3.org/Graphics/SVG/1.1/DTD/svg11.dtd">
<!-- Creator: CorelDRAW X6 -->
<svg xmlns="http://www.w3.org/2000/svg" xml:space="preserve" width="13.8889in" height="13.8889in" version="1.1" style="shape-rendering:geometricPrecision; text-rendering:geometricPrecision; image-rendering:optimizeQuality; fill-rule:evenodd; clip-rule:evenodd"
viewBox="0 0 13889 13889"
 xmlns:xlink="http://www.w3.org/1999/xlink">
 <defs>
  <style type="text/css">
   <![CDATA[
    .fil0 {fill:none;fill-rule:nonzero}
   ]]>
  </style>
 </defs>
 <g id="Layer_x0020_1">
  <metadata id="CorelCorpID_0Corel-Layer"/>
  <g id="_155137032">
   <path class="fil0" d="M7475 3790c729,-146 2915,104 3040,333 125,229 -541,1333 -875,1603 -333,271 -2582,312 -2582,312l-465 250c0,0 -590,229 -902,354 -312,125 -701,604 -1118,1104 -416,500 -437,562 -958,562 -521,0 -597,0 -951,-583 -354,-583 -250,-2533 -146,-2929 104,-396 396,-1478 1395,-1583 916,-125 3255,326 3525,514 562,354 -506,83 35,62z"/>
  </g>
 </g>
</svg>
