<?xml version="1.0" encoding="utf-8"?>
<!-- Generator: Adobe Illustrator 16.0.0, SVG Export Plug-In . SVG Version: 6.00 Build 0)  -->
<!DOCTYPE svg PUBLIC "-//W3C//DTD SVG 1.1//EN" "http://www.w3.org/Graphics/SVG/1.1/DTD/svg11.dtd">
<svg version="1.1" id="Layer_1" xmlns="http://www.w3.org/2000/svg" xmlns:xlink="http://www.w3.org/1999/xlink" x="0px" y="0px"
	 width="1000px" height="1000px" viewBox="0 0 1000 1000" enable-background="new 0 0 1000 1000" xml:space="preserve">
<path fill="none" stroke="black" d="M535.692,268.374c-10.944-7.577-68.834-21.141-129.176-29.987c-47.117-6.907-95.729-10.937-124.653-6.992
	c-17.635,1.837-32.208,7.905-44.273,16.44c-14.296,10.114-25.068,23.69-33.234,37.793c-13.065,22.564-19.46,46.476-22.943,59.71
	c-3.982,15.133-7.964,61.86-7.001,108.633c0.532,25.807,2.569,51.629,6.942,72.167c2.62,12.305,6.079,22.712,10.555,30.084
	c11.28,18.579,18.642,28.934,26.594,34.706c10.016,7.27,20.968,7.269,41.862,7.269c21.25,0,30.932-1.446,40.797-9.254
	c7.535-5.965,15.177-15.643,28.163-31.225c13.838-16.606,27.256-32.894,39.905-46.503c14.758-15.879,28.468-28.113,40.578-32.958
	c22.489-8.996,64.941-25.479,64.941-25.479s2.472,1.503,42.952-16.487c3.479-0.491-1.657-1.651,10.771-2.083
	c18.543-0.644,47.392-1.926,76.018-4.322c39.61-3.315,78.794-8.76,89.663-17.591c9.821-7.979,23.662-26.011,35.969-45.657
	c17.753-28.342,32.313-60.045,27-69.785c-4.123-7.559-39.424-15.432-81.51-20.733c-29.326-3.695-61.947-6.14-89.609-6.36
	c-11.182-0.089-30.568,0.889-30.568,0.889S552.172,275.861,535.692,268.374z"/>
</svg>
