<?xml version="1.0" encoding="utf-8"?>
<!-- Generator: Adobe Illustrator 16.0.0, SVG Export Plug-In . SVG Version: 6.00 Build 0)  -->
<!DOCTYPE svg PUBLIC "-//W3C//DTD SVG 1.1//EN" "http://www.w3.org/Graphics/SVG/1.1/DTD/svg11.dtd">
<svg version="1.1" id="Layer_1" xmlns="http://www.w3.org/2000/svg" xmlns:xlink="http://www.w3.org/1999/xlink" x="0px" y="0px"
	 width="1000px" height="1000px" viewBox="0 0 1000 1000" enable-background="new 0 0 1000 1000" xml:space="preserve">
<path fill="none" d="M450,800c-13.311,13.31-39.093,22.4-69.438,27.27c-33.413,5.362-72.357,5.607-106.276,0.736
	C241.852,823.349,214.013,814.014,200,800c-6.573-6.573-11.875-21.62-15.871-42.596c-5.322-27.937-8.329-66.39-8.942-109.35
	c-1.147-80.411,6.095-176.61,22.242-249.181c10.114-45.457,23.722-81.644,40.951-98.873c11.889-11.889,24.546-19.766,37.373-24.646
	c15.197-5.782,30.633-7.358,45.314-6.417c16.944,1.086,32.883,5.524,46.29,10.721C390.648,288.685,406.297,300,406.297,300
	s25.712,23.838,43.703,23.838c17.991,0,16.267-23.838,16.267-23.838l2.999-120h58.471v120c0,0,4.272,26.836,22.264,26.836
	c17.991,0,46.702-26.836,46.702-26.836s16.773-12.924,41.488-22.167c13.4-5.011,29.134-8.941,45.794-9.143
	c15.584-0.188,31.98,2.885,48.035,11.387c9.044,4.789,17.98,11.301,26.602,19.923c18.006,18.006,32.352,56.622,43.005,104.862
	c15.652,70.875,23.336,162.527,22.956,240.126c-0.22,44.87-3.136,85.041-8.766,113.78c-3.94,20.113-9.21,34.626-15.815,41.232
	c-13.501,13.501-38.677,22.666-68.23,27.627c-32.611,5.475-70.554,5.833-104.027,1.256C593.861,824.25,564.559,814.559,550,800
	c-9.536-9.536-16.829-35.829-22.211-70.968c-6.938-45.294-10.704-105.285-12.011-163.027c-1.146-50.599-0.404-99.471,1.743-135.214
	c1.87-31.125,4.807-52.293,8.491-55.979c8.014-8.013-7.229-12.487-22.956-12.905c-16.639-0.442-33.819,3.656-24.57,12.905
	c4.047,4.048,6.957,25.672,8.557,57.236c1.866,36.81,1.952,87.139-0.013,138.876c-2.244,59.069-7.161,119.974-15.155,164.695
	C466.188,767.433,458.945,791.055,450,800z"/>
</svg>
