<?xml version="1.0" encoding="utf-8"?>
<!-- Generator: Adobe Illustrator 16.0.0, SVG Export Plug-In . SVG Version: 6.00 Build 0)  -->
<!DOCTYPE svg PUBLIC "-//W3C//DTD SVG 1.1//EN" "http://www.w3.org/Graphics/SVG/1.1/DTD/svg11.dtd">
<svg version="1.1" id="Layer_1" xmlns="http://www.w3.org/2000/svg" xmlns:xlink="http://www.w3.org/1999/xlink" x="0px" y="0px"
	 width="1000px" height="1000px" viewBox="0 0 1000 1000" enable-background="new 0 0 1000 1000" xml:space="preserve">
<path fill="none" d="M474,332c-10.817-5.727-19.964-12.667-27.698-20.292c-10.307-10.16-18.105-21.533-24.005-32.863
	C404.791,245.229,404,212,404,212l56-28c0,0,3.273,43.375,28.667,77.25c8.202,10.941,18.711,20.891,32.163,28.069
	c10.008,5.339,21.644,9.145,35.17,10.682c15.283,0,40.241-13.821,65.937-24.809c18.019-7.705,36.4-14.016,52.063-13.191
	c21.097,1.11,44.66,18.249,65.213,40.806C755.68,320.878,770.214,342.428,780,362c11.497,22.995,18.078,59.645,20.314,95.106
	c2.042,32.395,0.459,63.798-4.314,82.894c-5.694,22.776-23.06,62.41-45.82,98.598C732.967,665.965,712.669,691.36,692,706
	c-18.953,13.425-38.841,25.291-58.187,34.612C604.163,754.899,575.785,763.211,554,762c-19.446-1.08-44.143-9.747-68.419-20.01
	C464.915,733.253,444.554,723.358,428,716c-22.119-9.831-32.913-10.601-51.865-11.589c-11.894-0.62-27-1.326-50.135-4.411
	c-20.887-8.355-45.265-1.702-66.571,8.878C229.732,723.625,206,746,206,746l-46-56c0,0,33.825-23.959,71.777-43.435
	C257.761,633.232,285.679,622,306,622c22.691,0,51.148-6.179,75.465-12.928C410.731,600.95,434,592,434,592
	s24.693-18.108,48.205-44.82C495.343,532.254,508.113,514.641,516,496c5.912-13.974,8.425-29.737,8.183-46.003
	c-0.302-20.335-4.911-41.457-12.565-60.846C502.611,366.339,489.388,345.923,474,332z"/>
</svg>
